<svg version="1.1" width="40%" height="100%" xmlns="http://www.w3.org/2000/svg">

<title>Math 2014 Fall</title>
<rect width="100%" height="6%" y="0" fill="#55FFDD" stroke="black" stroke-fill="1" />
<text x="50%" y="30" font-size="30" text-anchor="middle" fill="black">Mathematics</text>
<rect width="100%" height="6%" y="40" fill="#FFFFEE" stroke="black" stroke-fill="1" />
<text x="50%" y="70" font-size="30" text-anchor="middle" fill="black">MATH 101 Calculus I</text>
<rect width="100%" height="6%" y="80" fill="#FFFF99" stroke="black" stroke-fill="1" />
<text x="50%" y="110" font-size="30" text-anchor="middle" fill="black">MATH 104 Calculus II</text>
<rect width="100%" height="6%" y="120" fill="#FFFFEE" stroke="black" stroke-fill="1" />
<text x="50%" y="150" font-size="30" text-anchor="middle" fill="black">MATH 125 The Shape of Space</text>
<rect width="100%" height="6%" y="160" fill="#FFFF99" stroke="black" stroke-fill="1" />
<text x="50%" y="190" font-size="30" text-anchor="middle" fill="black">MATH 133 Concepts of Mathematics</text>
<rect width="100%" height="6%" y="200" fill="#FFFFEE" stroke="black" stroke-fill="1" />
<text x="50%" y="230" font-size="30" text-anchor="middle" fill="black">MATH 141 Introductory Statistics</text>
<rect width="100%" height="6%" y="240" fill="#FFFF99" stroke="black" stroke-fill="1" />
<text x="50%" y="270" font-size="30" text-anchor="middle" fill="black">MATH 202 Cryptography</text>
<rect width="100%" height="6%" y="280" fill="#FFFFEE" stroke="black" stroke-fill="1" />
<text x="50%" y="310" font-size="30" text-anchor="middle" fill="black">MATH 221 Linear Algebra</text>
<rect width="100%" height="6%" y="320" fill="#FFFF99" stroke="black" stroke-fill="1" />
<text x="50%" y="350" font-size="30" text-anchor="middle" fill="black">MATH 251 Methods of Data Analysis</text>
<rect width="100%" height="6%" y="360" fill="#FFFFEE" stroke="black" stroke-fill="1" />
<text x="50%" y="390" font-size="30" text-anchor="middle" fill="black">MATH 2EE Independent Study Game Theory</text>
<rect width="100%" height="6%" y="400" fill="#FFFF99" stroke="black" stroke-fill="1" />
<text x="50%" y="430" font-size="30" text-anchor="middle" fill="black">MATH 321 Abstract Algebra</text>
<rect width="100%" height="6%" y="440" fill="#FFFFEE" stroke="black" stroke-fill="1" />
<text x="50%" y="470" font-size="30" text-anchor="middle" fill="black">MATH 331 Geometry</text>
<rect width="100%" height="6%" y="480" fill="#FFFF99" stroke="black" stroke-fill="1" />
<text x="50%" y="510" font-size="30" text-anchor="middle" fill="black">MATH 321 Abstract Algebra</text>
<rect width="100%" height="6%" y="520" fill="#FFFFEE" stroke="black" stroke-fill="1" />
<text x="50%" y="550" font-size="30" text-anchor="middle" fill="black">MATH 331 Geometry</text>

</svg>